<svg xmlns="http://www.w3.org/2000/svg" viewBox="0 0 1000 1000">
<path vector-effect="non-scaling-stroke" transform="translate(-22.727 -44.318) scale(22.7273)" d="M15 37.95q-1.2 0-2.1-.9-.9-.9-.9-2.1v-28q0-1.2.9-2.1.9-.9 2.1-.9h22q1.2 0 2.1.9.9.9.9 2.1v28q0 1.2-.9 2.1-.9.9-2.1.9Zm0-3h22v-28H15v28Zm-6 9q-1.2 0-2.1-.9-.9-.9-.9-2.1V10.8h3v30.15h23.7v3Zm6-37v28-28Z"/>
<path transform="translate(312.99 116.764) scale(5.5695)" d="M25.6 31.7c2.1 2.1 4.2 4.2 6.2 6.5 3 3.4 8.4-2.1 5-5-3.2-2.7-6.1-5.7-9.2-8.5-1.5-1.5-3.8-1.1-5 .6-2.5 3.8-5.4 7-8.8 10-1.7 1.4.1 4.6 2.2 3.8 3.8-1.5 7-4.3 9.6-7.4zm41.8-7c-1.5-1.5-3.8-1.1-5 .6-2.5 3.8-5.4 7-8.8 10-1.7 1.4.1 4.6 2.2 3.8 3.8-1.5 6.9-4.3 9.6-7.4 2.1 2.1 4.2 4.2 6.2 6.5 3 3.4 8.4-2.1 5-5-3.3-2.7-6.2-5.7-9.2-8.5z"/>
<path transform="translate(312.991 116.764) scale(5.5695)" d="M67.5 57.2c-3.7 1.6-6.9 3.8-10.9 4.9-4 1.1-8.1 1.6-12.2 1.5-8 0-15-3.2-22.3-6-.8-.3-1.6.8-1.1 1.4 1.3 1.6 2.4 3.2 4.1 4.4 1.9 1.3 4 2.2 6.1 3.1 4.2 1.7 8.7 2.6 13.2 2.9 4.6.3 9.4-.3 13.8-1.5 4.3-1.2 9.6-2.9 12.8-6.2 2.4-2.4-.6-5.7-3.5-4.5z"/></svg>